<mxfile host="Electron" agent="Mozilla/5.0 (Macintosh; Intel Mac OS X 10_15_7) AppleWebKit/537.36 (KHTML, like Gecko) draw.io/26.1.1 Chrome/132.0.6834.210 Electron/34.3.3 Safari/537.36" version="26.1.1">
  <diagram id="Ke7-rHGJ52QRTsytkv1v" name="Page-1">
    <mxGraphModel dx="794" dy="598" grid="0" gridSize="10" guides="1" tooltips="1" connect="1" arrows="1" fold="1" page="1" pageScale="1" pageWidth="827" pageHeight="1169" math="0" shadow="0">
      <root>
        <mxCell id="0" />
        <mxCell id="1" parent="0" />
        <mxCell id="mzD17doYZkjrst7VZzJg-15" value="" style="rounded=1;whiteSpace=wrap;html=1;" vertex="1" parent="1">
          <mxGeometry x="280" y="80" width="160" height="200" as="geometry" />
        </mxCell>
        <mxCell id="mzD17doYZkjrst7VZzJg-13" value="" style="rounded=1;whiteSpace=wrap;html=1;" vertex="1" parent="1">
          <mxGeometry x="40" y="80" width="160" height="200" as="geometry" />
        </mxCell>
        <mxCell id="2" value="TxApplication" style="rounded=0;whiteSpace=wrap;html=1;" parent="1" vertex="1">
          <mxGeometry x="60" y="120" width="120" height="40" as="geometry" />
        </mxCell>
        <mxCell id="mzD17doYZkjrst7VZzJg-2" value="TxSocket" style="rounded=0;whiteSpace=wrap;html=1;" vertex="1" parent="1">
          <mxGeometry x="60" y="200" width="120" height="40" as="geometry" />
        </mxCell>
        <mxCell id="mzD17doYZkjrst7VZzJg-3" value="RxSocket" style="rounded=0;whiteSpace=wrap;html=1;" vertex="1" parent="1">
          <mxGeometry x="300" y="200" width="120" height="40" as="geometry" />
        </mxCell>
        <mxCell id="mzD17doYZkjrst7VZzJg-4" value="RxApplication" style="rounded=0;whiteSpace=wrap;html=1;" vertex="1" parent="1">
          <mxGeometry x="300" y="120" width="120" height="40" as="geometry" />
        </mxCell>
        <mxCell id="mzD17doYZkjrst7VZzJg-5" value="" style="endArrow=classic;html=1;rounded=0;entryX=0.5;entryY=0;entryDx=0;entryDy=0;" edge="1" parent="1" target="mzD17doYZkjrst7VZzJg-2">
          <mxGeometry width="50" height="50" relative="1" as="geometry">
            <mxPoint x="119.5" y="160" as="sourcePoint" />
            <mxPoint x="119.5" y="190" as="targetPoint" />
          </mxGeometry>
        </mxCell>
        <mxCell id="mzD17doYZkjrst7VZzJg-6" value="" style="endArrow=none;html=1;rounded=0;entryX=0.5;entryY=0;entryDx=0;entryDy=0;startArrow=classic;startFill=1;" edge="1" parent="1">
          <mxGeometry width="50" height="50" relative="1" as="geometry">
            <mxPoint x="359.5" y="160" as="sourcePoint" />
            <mxPoint x="360" y="200" as="targetPoint" />
          </mxGeometry>
        </mxCell>
        <mxCell id="mzD17doYZkjrst7VZzJg-7" value="" style="endArrow=classic;html=1;rounded=0;entryX=0;entryY=0.5;entryDx=0;entryDy=0;" edge="1" parent="1" target="mzD17doYZkjrst7VZzJg-3">
          <mxGeometry width="50" height="50" relative="1" as="geometry">
            <mxPoint x="200" y="220" as="sourcePoint" />
            <mxPoint x="250" y="170" as="targetPoint" />
          </mxGeometry>
        </mxCell>
        <mxCell id="mzD17doYZkjrst7VZzJg-8" value="&lt;font style=&quot;font-size: 9px;&quot;&gt;SendBuffer&lt;/font&gt;" style="text;html=1;align=center;verticalAlign=middle;whiteSpace=wrap;rounded=0;" vertex="1" parent="1">
          <mxGeometry x="132" y="147" width="40" height="10" as="geometry" />
        </mxCell>
        <mxCell id="mzD17doYZkjrst7VZzJg-9" value="&lt;font style=&quot;font-size: 9px;&quot;&gt;ReceiveBuffer&lt;/font&gt;" style="text;html=1;align=center;verticalAlign=middle;whiteSpace=wrap;rounded=0;" vertex="1" parent="1">
          <mxGeometry x="310" y="147" width="40" height="10" as="geometry" />
        </mxCell>
        <mxCell id="mzD17doYZkjrst7VZzJg-11" value="" style="image;html=1;image=img/lib/clip_art/computers/Network_2_128x128.png" vertex="1" parent="1">
          <mxGeometry x="220" y="200" width="40" height="40" as="geometry" />
        </mxCell>
        <mxCell id="mzD17doYZkjrst7VZzJg-12" value="Network" style="text;html=1;align=center;verticalAlign=middle;whiteSpace=wrap;rounded=0;" vertex="1" parent="1">
          <mxGeometry x="210" y="240" width="60" height="10" as="geometry" />
        </mxCell>
        <mxCell id="mzD17doYZkjrst7VZzJg-14" value="SENDER" style="text;html=1;align=center;verticalAlign=middle;whiteSpace=wrap;rounded=0;" vertex="1" parent="1">
          <mxGeometry x="90" y="90" width="60" height="20" as="geometry" />
        </mxCell>
        <mxCell id="mzD17doYZkjrst7VZzJg-16" value="RECEIVER" style="text;html=1;align=center;verticalAlign=middle;whiteSpace=wrap;rounded=0;" vertex="1" parent="1">
          <mxGeometry x="330" y="90" width="60" height="20" as="geometry" />
        </mxCell>
      </root>
    </mxGraphModel>
  </diagram>
</mxfile>
